<svg width="18" height="14" fill="none" xmlns="http://www.w3.org/2000/svg"><path d="M8.46 0L1.72 4.863v4.036l6.74 4.863c-.014-10.374 0-5.283 0-13.762z" fill="#B3B3B3"/><path d="M0 10.23h3.538V3.527H0v6.701zm12.79 3.369a.832.832 0 01-.458-.136.815.815 0 01-.311-.993.82.82 0 01.447-.449 5.602 5.602 0 003.443-5.138 5.558 5.558 0 00-1.667-3.943 5.687 5.687 0 00-1.79-1.2.827.827 0 01-.445-.447.81.81 0 01.004-.626.802.802 0 01.449-.443.826.826 0 01.636.01 7.283 7.283 0 013.88 3.835c.38.886.577 1.838.577 2.8a7.132 7.132 0 01-2.141 5.091 7.203 7.203 0 01-2.316 1.573.781.781 0 01-.308.066z" fill="#B3B3B3"/><path d="M11.222 10.304a.789.789 0 01-.495-.174.76.76 0 01-.196-.955.778.778 0 01.387-.35c.387-.162.716-.433.947-.778.23-.345.353-.75.351-1.164a2.035 2.035 0 00-.165-.816 2.1 2.1 0 00-.474-.668 2.189 2.189 0 00-.678-.466.768.768 0 01-.356-.421.754.754 0 01.02-.548.77.77 0 01.388-.394.788.788 0 01.555-.037 3.709 3.709 0 011.425 1.06c.38.463.64 1.01.757 1.594a3.606 3.606 0 01-.085 1.757 3.647 3.647 0 01-.908 1.515 3.626 3.626 0 01-1.17.78.787.787 0 01-.303.065z" fill="#B3B3B3"/></svg>