<svg width="29" height="16" fill="none" xmlns="http://www.w3.org/2000/svg"><path d="M29 16H0L14.5 0 29 16zM7.876 8.08l1.974 2.18 1.974-2.178L9.85 5.897 7.875 8.082zm1.975 7.308l1.974-2.178-1.974-2.185-1.975 2.185 1.975 2.178zm9.33 0l1.974-2.178-1.975-2.185-2.006 2.185 2.006 2.178zM16.847 3.325a.229.229 0 01-.047.058 163.79 163.79 0 01-1.866 2.062c-.054.058 0 .097 0 .148l1.82 2.01.085.084 1.975-2.171-1.967-2.191zM5.201 15.388l.078-.084L7.1 13.3a.124.124 0 00.045-.093.124.124 0 00-.046-.094c-.552-.593-1.088-1.198-1.632-1.798l-.265-.29-1.974 2.185L5.2 15.388zm5-9.879l1.974 2.178.063-.058 1.858-2.049c.062-.07 0-.11 0-.16l-1.82-1.998-.077-.084L10.2 5.509zm0 5.155l1.974 2.178.101-.103c.591-.644 1.19-1.288 1.789-1.978a.142.142 0 00.039-.045.117.117 0 000-.11 205.19 205.19 0 01-1.71-1.888l-.219-.231-1.975 2.178zm9.33 0l1.974 2.178 1.975-2.178-1.975-2.177-1.975 2.178zM16.847 8.48v.045l-1.874 2.069c-.062.058-.039.096 0 .148l1.742 1.933c.046.058.1.116.163.18l1.975-2.178-2.006-2.197zm-9.314 4.35a.18.18 0 01.039-.052l1.873-2.068c.055-.065 0-.097 0-.149l-1.842-2.01a.427.427 0 00-.086-.077L5.55 10.645l1.983 2.185zm11.615-2.578l1.975-2.178-1.975-2.171-1.975 2.178 1.975 2.171zm-4.665-5.155L16.46 2.92 14.516.786h-.04L12.58 2.9a.085.085 0 00-.018.051c0 .019.006.036.018.052l1.904 2.094zm0 5.155l1.975-2.178L14.5 5.896l-1.975 2.185 1.96 2.171zm0 5.155l1.975-2.178-1.975-2.184-1.959 2.165 1.96 2.197zm9.33 0l1.975-2.178-1.967-2.165h-.039l-1.905 2.081c-.062.071 0 .104 0 .149l1.555 1.746.381.367zM1.12 15.53h3.545l-1.757-1.934L1.12 15.53zm23.246 0h3.514l-1.757-1.934-1.757 1.934zm-10.426 0l-1.765-1.934-1.764 1.934h3.53zm5.777 0h3.514l-1.757-1.934-1.757 1.934zm-1.135 0l-1.757-1.934-1.757 1.934h3.514zm-9.33 0l-1.757-1.934-1.757 1.934h3.514z" fill="#fff"/></svg>