<svg width="26" height="20" fill="none" xmlns="http://www.w3.org/2000/svg"><path d="M13.24 0c-.325 0-.608.104-.846.313L6.13 5.79H1.204c-.326 0-.608.104-.846.312-.239.209-.358.456-.358.74v6.315c0 .285.12.532.358.74.238.21.52.313.846.313h4.927l6.263 5.477c.238.209.52.313.846.313.327 0 .608-.104.847-.313.238-.208.357-.455.357-.74V1.053c0-.285-.119-.532-.356-.74A1.242 1.242 0 0013.24 0zm7.011 12.343c.507-.72.76-1.499.76-2.336 0-.838-.253-1.619-.76-2.346a4.054 4.054 0 00-2.013-1.536 1.073 1.073 0 00-.447-.082c-.31 0-.578.102-.805.305a.972.972 0 00-.34.751.84.84 0 00.215.586c.144.16.316.298.519.413.202.115.405.242.608.38.203.138.375.333.518.586.143.253.215.567.215.941s-.072.688-.215.942a1.697 1.697 0 01-.518.586 9.446 9.446 0 01-.608.38 2.052 2.052 0 00-.519.412.848.848 0 00-.215.586c0 .298.114.548.34.752.227.202.495.306.805.306.179 0 .328-.028.447-.083a4.17 4.17 0 002.013-1.545v.002z" fill="#B3B3B3"/><path d="M24.465 14.747C25.488 13.297 26 11.714 26 10s-.512-3.296-1.535-4.748c-1.023-1.45-2.378-2.506-4.062-3.167a1.392 1.392 0 00-.47-.084c-.313 0-.584.107-.813.32a.999.999 0 00-.342.756c0 .437.235.767.704.992.674.325 1.131.57 1.372.74a6.49 6.49 0 012.085 2.276c.5.913.75 1.884.75 2.916 0 1.03-.25 2.002-.75 2.916a6.49 6.49 0 01-2.085 2.277c-.24.168-.698.414-1.372.74-.47.224-.704.554-.704.991a1 1 0 00.342.756c.229.213.505.32.83.32.145 0 .296-.029.452-.084 1.684-.662 3.04-1.717 4.062-3.168z" fill="#B3B3B3"/></svg>